<svg xmlns="http://www.w3.org/2000/svg" xmlns:xlink="http://www.w3.org/1999/xlink" width="500" zoomAndPan="magnify" viewBox="0 0 375 74.999997" height="100" preserveAspectRatio="xMidYMid meet" version="1.0"><defs><g/></defs><path fill="#ffffff" d="M 38.671875 57.425781 L 39.34375 58.089844 L 39.410156 58.15625 C 41.496094 60.320312 41.472656 63.800781 39.34375 65.933594 C 37.210938 68.066406 33.730469 68.089844 31.566406 66.003906 L 31.5 65.933594 L 30.828125 65.269531 L 29.003906 63.4375 C 26.847656 61.28125 26.847656 57.753906 29.003906 55.589844 C 31.15625 53.4375 34.691406 53.4375 36.84375 55.589844 Z M 75.660156 27.074219 L 77.054688 25.679688 L 83.890625 18.839844 C 86.046875 16.683594 86.046875 13.15625 83.890625 10.996094 C 81.730469 8.839844 78.203125 8.839844 76.046875 10.996094 L 69.214844 17.832031 L 67.820312 19.226562 L 63.898438 23.152344 C 61.742188 25.304688 61.742188 28.832031 63.898438 30.996094 L 67.820312 34.917969 L 68.519531 35.613281 L 76.101562 43.195312 C 78.253906 45.351562 81.78125 45.351562 83.941406 43.195312 C 86.097656 41.042969 86.097656 37.507812 83.941406 35.351562 L 76.363281 27.765625 Z M 29.316406 11.046875 L 29.316406 11.039062 C 31.46875 8.886719 35.003906 8.886719 37.160156 11.039062 L 83.839844 57.746094 C 86 59.902344 86 63.4375 83.839844 65.59375 C 81.683594 67.746094 78.160156 67.746094 75.996094 65.59375 L 29.316406 18.886719 C 27.160156 16.730469 27.160156 13.203125 29.316406 11.046875 Z M 29.25 33.40625 C 31.402344 31.25 34.929688 31.25 37.089844 33.40625 L 42.40625 38.722656 L 53.910156 50.230469 L 61.488281 57.8125 C 63.644531 59.96875 63.644531 63.503906 61.488281 65.660156 C 59.328125 67.8125 55.800781 67.8125 53.648438 65.660156 L 46.066406 58.074219 L 34.5625 46.566406 L 29.25 41.25 C 27.09375 39.09375 27.09375 35.558594 29.25 33.40625 Z M 29.25 33.40625 " fill-opacity="1" fill-rule="evenodd"/><g fill="#ffffff" fill-opacity="1"><g transform="translate(133.759174, 52.984031)"><g><path d="M 18.359375 0.59375 C 15.117188 0.59375 12.285156 -0.140625 9.859375 -1.609375 C 7.441406 -3.085938 5.5625 -5.144531 4.21875 -7.78125 C 2.875 -10.414062 2.203125 -13.484375 2.203125 -16.984375 C 2.203125 -20.515625 2.894531 -23.628906 4.28125 -26.328125 C 5.675781 -29.023438 7.65625 -31.132812 10.21875 -32.65625 C 12.789062 -34.175781 15.847656 -34.9375 19.390625 -34.9375 C 23.410156 -34.9375 26.742188 -33.972656 29.390625 -32.046875 C 32.046875 -30.117188 33.765625 -27.453125 34.546875 -24.046875 L 27.53125 -24.046875 C 27.007812 -25.648438 26.0625 -26.898438 24.6875 -27.796875 C 23.3125 -28.703125 21.546875 -29.15625 19.390625 -29.15625 C 15.953125 -29.15625 13.300781 -28.066406 11.4375 -25.890625 C 9.570312 -23.710938 8.640625 -20.726562 8.640625 -16.9375 C 8.640625 -13.132812 9.5625 -10.191406 11.40625 -8.109375 C 13.257812 -6.035156 15.769531 -5 18.9375 -5 C 22.050781 -5 24.398438 -5.84375 25.984375 -7.53125 C 27.578125 -9.21875 28.535156 -11.4375 28.859375 -14.1875 L 20.171875 -14.1875 L 20.171875 -18.890625 L 35.1875 -18.890625 L 35.1875 0 L 29.390625 0 L 28.90625 -4.515625 C 27.789062 -2.878906 26.398438 -1.617188 24.734375 -0.734375 C 23.066406 0.148438 20.941406 0.59375 18.359375 0.59375 Z M 18.359375 0.59375 "/></g></g></g><g fill="#ffffff" fill-opacity="1"><g transform="translate(179.292246, 52.984031)"><g><path d="M 3.34375 0 L 3.34375 -34.359375 L 9.625 -34.359375 L 9.625 -4.90625 L 24.828125 -4.90625 L 24.828125 0 Z M 3.34375 0 "/></g></g></g><g fill="#ffffff" fill-opacity="1"><g transform="translate(213.933856, 52.984031)"><g><path d="M 3.34375 0 L 3.34375 -34.359375 L 9.625 -34.359375 L 9.625 0 Z M 3.34375 0 "/></g></g></g><g fill="#ffffff" fill-opacity="1"><g transform="translate(234.495042, 52.984031)"><g><path d="M 11.34375 0 L 11.34375 -29.296875 L 1.328125 -29.296875 L 1.328125 -34.359375 L 27.6875 -34.359375 L 27.6875 -29.296875 L 17.625 -29.296875 L 17.625 0 Z M 11.34375 0 "/></g></g></g><g fill="#ffffff" fill-opacity="1"><g transform="translate(271.099083, 52.984031)"><g><path d="M 18.890625 0.59375 C 15.421875 0.59375 12.441406 -0.148438 9.953125 -1.640625 C 7.472656 -3.128906 5.5625 -5.207031 4.21875 -7.875 C 2.875 -10.539062 2.203125 -13.625 2.203125 -17.125 C 2.203125 -20.625 2.875 -23.710938 4.21875 -26.390625 C 5.5625 -29.078125 7.472656 -31.171875 9.953125 -32.671875 C 12.441406 -34.179688 15.421875 -34.9375 18.890625 -34.9375 C 23.015625 -34.9375 26.394531 -33.914062 29.03125 -31.875 C 31.664062 -29.832031 33.3125 -26.960938 33.96875 -23.265625 L 27.046875 -23.265625 C 26.617188 -25.128906 25.707031 -26.59375 24.3125 -27.65625 C 22.925781 -28.71875 21.085938 -29.25 18.796875 -29.25 C 15.617188 -29.25 13.128906 -28.164062 11.328125 -26 C 9.535156 -23.84375 8.640625 -20.882812 8.640625 -17.125 C 8.640625 -13.363281 9.535156 -10.410156 11.328125 -8.265625 C 13.128906 -6.128906 15.617188 -5.0625 18.796875 -5.0625 C 21.085938 -5.0625 22.925781 -5.554688 24.3125 -6.546875 C 25.707031 -7.546875 26.617188 -8.929688 27.046875 -10.703125 L 33.96875 -10.703125 C 33.3125 -7.171875 31.664062 -4.40625 29.03125 -2.40625 C 26.394531 -0.40625 23.015625 0.59375 18.890625 0.59375 Z M 18.890625 0.59375 "/></g></g></g><g fill="#ffffff" fill-opacity="1"><g transform="translate(314.865975, 52.984031)"><g><path d="M 3.34375 0 L 3.34375 -34.359375 L 9.625 -34.359375 L 9.625 -20.078125 L 25.03125 -20.078125 L 25.03125 -34.359375 L 31.3125 -34.359375 L 31.3125 0 L 25.03125 0 L 25.03125 -14.96875 L 9.625 -14.96875 L 9.625 0 Z M 3.34375 0 "/></g></g></g></svg>