<?xml version="1.0" encoding="utf-8"?><svg version="1.1" id="Layer_1" xmlns="http://www.w3.org/2000/svg" xmlns:xlink="http://www.w3.org/1999/xlink" x="0px" y="0px" viewBox="0 0 122.88 122.88" style="enable-background:new 0 0 122.88 122.88" xml:space="preserve"><style type="text/css"><![CDATA[
	.st0{fill-rule:evenodd;clip-rule:evenodd;fill:#EF4136;}
	.st1{fill-rule:evenodd;clip-rule:evenodd;fill:#FFFFFF;}
]]></style><g><path class="st0" d="M61.44,0c33.93,0,61.44,27.51,61.44,61.44c0,33.93-27.51,61.44-61.44,61.44C27.51,122.88,0,95.37,0,61.44 C0,27.51,27.51,0,61.44,0L61.44,0z"/><path class="st1" d="M79.16,46.24c-2.32-2.68-2.03-6.73,0.65-9.05s6.73-2.03,9.05,0.65c2.79,3.23,5.01,6.96,6.53,11.04 c1.48,3.98,2.29,8.23,2.29,12.62c0,10.01-4.06,19.07-10.62,25.63S71.45,97.75,61.44,97.75c-10.01,0-19.07-4.06-25.63-10.62 S25.2,71.51,25.2,61.5c0-4.32,0.78-8.5,2.2-12.4c1.46-4,3.62-7.69,6.33-10.91c2.28-2.71,6.32-3.06,9.03-0.78 c2.71,2.28,3.06,6.32,0.78,9.03c-1.73,2.06-3.12,4.43-4.07,7.04c-0.9,2.47-1.39,5.17-1.39,8.02c0,6.45,2.62,12.3,6.84,16.53 c4.23,4.23,10.07,6.84,16.52,6.84c6.45,0,12.3-2.62,16.52-6.84s6.85-10.07,6.85-16.53c0-2.91-0.51-5.65-1.43-8.14 C82.4,50.74,80.97,48.33,79.16,46.24L79.16,46.24z"/><path class="st1" d="M67.88,49.12c0,3.55-2.88,6.44-6.44,6.44c-3.55,0-6.44-2.88-6.44-6.44V29.93c0-3.55,2.88-6.44,6.44-6.44 c3.55,0,6.44,2.88,6.44,6.44V49.12L67.88,49.12z"/></g></svg>